HIERARCHY
ROOT ui
{
	 OFFSET 0 0 0
	 CHANNELS 3 XPosition YPosition Z Position
	 EndSite
	 {
	 OFFSET 0 -1 0
	 }
}
ROOT li
{
	 OFFSET 0 0 0
	 CHANNELS 3 XPosition YPosition Z Position
	 EndSite
	 {
	 OFFSET 0 -1 0
	 }
}
ROOT ul
{
	 OFFSET 0 0 0
	 CHANNELS 3 XPosition YPosition Z Position
	 EndSite
	 {
	 OFFSET 0 -1 0
	 }
}
ROOT ll
{
	 OFFSET 0 0 0
	 CHANNELS 3 XPosition YPosition Z Position
	 EndSite
	 {
	 OFFSET 0 -1 0
	 }
}
ROOT tt
{
	 OFFSET 0 0 0
	 CHANNELS 3 XPosition YPosition Z Position
	 EndSite
	 {
	 OFFSET 0 -1 0
	 }
}
ROOT tb
{
	 OFFSET 0 0 0
	 CHANNELS 3 XPosition YPosition Z Position
	 EndSite
	 {
	 OFFSET 0 -1 0
	 }
}
ROOT td
{
	 OFFSET 0 0 0
	 CHANNELS 3 XPosition YPosition Z Position
	 EndSite
	 {
	 OFFSET 0 -1 0
	 }
}
ROOT v
{
	 OFFSET 0 0 0
	 CHANNELS 3 XPosition YPosition Z Position
	 EndSite
	 {
	 OFFSET 0 -1 0
	 }
}
ROOT bn
{
	 OFFSET 0 0 0
	 CHANNELS 3 XPosition YPosition Z Position
	 EndSite
	 {
	 OFFSET 0 -1 0
	 }
}
MOTION
Frames: 11
Frame Time: 0.002
-0.0012065000534057617	-6.66769027709961E-4	0		0.6707025756835937	-2.6262158203125	0		-1.1720716552734376	0.12354194641113281	0		-0.40749166870117187	-3.163924072265625	0		1.8157442626953124	-0.537076171875	0		3.41512109375	-0.92339697265625	0		4.86334130859375	-0.48923391723632814	0		5.938314453125	0.3377667846679687	0		-0.4394302062988281	5.83079296875	0		
0.005995195865631103	0.005281139850616455	0		0.6229373779296875	-2.61574365234375	0		-1.1198238525390625	0.13406236267089844	0		-0.37135800170898436	-3.16425244140625	0		1.8580479736328126	-0.5204691162109375	0		3.4135693359375	-0.8913741455078125	0		4.86348486328125	-0.4892330322265625	0		5.934783203125	0.3205461730957031	0		-0.3911271057128906	5.845349609375	0		
-8.97225022315979E-4	-6.297799944877624E-4	0		0.6610887451171875	-2.617086181640625	0		-1.14466748046875	0.13332437133789063	0		-0.407194091796875	-3.1638857421875	0		1.852279541015625	-0.5133916015625	0		3.3966767578125	-0.8971919555664063	0		4.8546875	-0.48512896728515625	0		5.9178310546875	0.3330828552246094	0		-0.44207049560546874	5.8338603515625	0		
0.00331744909286499	0.002361238956451416	0		0.6103289184570313	-2.61156787109375	0		-1.118386962890625	0.1431028289794922	0		-0.29007562255859376	-3.171976318359375	0		1.8494283447265625	-0.51733056640625	0		3.404064697265625	-0.8762254638671875	0		4.8518173828125	-0.4910633544921875	0		5.9179638671875	0.3331490478515625	0		-0.44189297485351564	5.83388916015625	0		
-0.006569178104400635	-0.007504839897155762	0		0.6594779052734375	-2.618996337890625	0		-1.1561771240234375	0.14350004577636719	0		-0.4407528076171875	-3.160495361328125	0		1.79166064453125	-0.514731201171875	0		3.391267578125	-0.87705078125	0		4.83898046875	-0.49588320922851564	0		5.92301708984375	0.3106473693847656	0		-0.4086403198242187	5.840609375	0		
0.003758047103881836	0.0024460630416870115	0		0.6128226318359375	-2.60849658203125	0		-1.11290966796875	0.147129150390625	0		-0.40350445556640624	-3.1608046875	0		1.7918956298828126	-0.5146740112304687	0		3.392781982421875	-0.847995361328125	0		4.8422626953125	-0.4908375244140625	0		5.918279296875	0.3333922424316406	0		-0.4283928527832031	5.8458447265625	0		
0.004014609813690185	0.0025035760402679443	0		0.6660579223632812	-2.612940673828125	0		-1.1105396728515624	0.15915872192382813	0		-0.4440505676269531	-3.142359375	0		1.76609033203125	-0.5213544921875	0		3.38004541015625	-0.8477884521484375	0		4.8306669921875	-0.475630126953125	0		5.9148349609375	0.31808157348632815	0		-0.40921875	5.8417177734375	0		
2.6813599467277526E-4	-3.8880398869514465E-4	0		0.6643435668945312	-2.614846435546875	0		-1.04829052734375	0.15562672424316407	0		-0.2799111022949219	-3.1608583984375	0		1.7652432861328125	-0.535259765625	0		3.387525146484375	-0.8277576293945312	0		4.83198193359375	-0.4725287170410156	0		5.91140234375	0.30107391357421875	0		-0.44303350830078125	5.8371083984375	0		
0.004604251861572266	0.0026549909114837646	0		0.65476171875	-2.605663330078125	0		-1.12397119140625	0.1574237518310547	0		-0.46520333862304686	-3.121007080078125	0		1.75644189453125	-0.547074951171875	0		3.37096533203125	-0.814482666015625	0		4.82229443359375	-0.4723065490722656	0		5.91946728515625	0.30112969970703124	0		-0.44476071166992187	5.83920556640625	0		
-0.005157485008239746	-0.007153569221496582	0		0.6390623168945313	-2.611408935546875	0		-1.03957666015625	0.16370857238769532	0		-0.42682421875	-3.11927783203125	0		1.7346094970703125	-0.5647527465820312	0		3.3723916015625	-0.805365966796875	0		4.8226318359375	-0.4721665344238281	0		5.9111669921875	0.3067774658203125	0		-0.4444812927246094	5.839296875	0		
0.005295263767242432	0.002860985040664673	0		0.6175101318359375	-2.604084228515625	0		-1.1491771240234374	0.16885675048828125	0		-0.4305156860351563	-3.1271328125	0		1.70092626953125	-0.5693038940429688	0		3.36684228515625	-0.7961703491210937	0		4.80706103515625	-0.4648633117675781	0		5.91632763671875	0.28445144653320314	0		-0.44318255615234375	5.83839404296875	0		
